<?xml version="1.0" encoding="UTF-8"?>
<svg version="1.1" xmlns="http://www.w3.org/2000/svg" width="128" height="128">
<path d="M0 0 C3.50939652 0.87734913 5.66214037 1.68040306 8.3125 4.1875 C10.84284601 8.40474334 11.28264614 12.10223309 10.5625 16.9375 C10.2840625 17.9584375 10.2840625 17.9584375 10 19 C11.1446875 18.2265625 11.1446875 18.2265625 12.3125 17.4375 C13.199375 16.963125 14.08625 16.48875 15 16 C16.485 16.495 16.485 16.495 18 17 C17.484375 17.70125 16.96875 18.4025 16.4375 19.125 C14.63268047 22.73463906 15.04834869 24.12677916 16 28 C16.96049795 29.9476025 17.98482572 31.86470693 19.0625 33.75 C22.01534316 39.38788671 22.75052566 43.71782229 22 50 C27.07144566 46.32575599 27.07144566 46.32575599 30.0625 41 C29.99253785 37.64181662 29.25571646 35.10235832 28 32 C32.27761063 32.47529007 34.34161627 34.7668306 37 38 C38.28789205 41.78318288 38.23960243 43.40099394 36.75 47.125 C35 50 35 50 33.25 52.1875 C32.8375 52.785625 32.425 53.38375 32 54 C32.33 54.99 32.66 55.98 33 57 C33.99 57 34.98 57 36 57 C36.33 55.02 36.66 53.04 37 51 C39.29104056 51.91641622 40.75057101 52.69118315 42.3125 54.625 C43.35960263 58.24226365 43.02899395 61.44058696 42 65 C40.82477025 67.12736503 39.51295595 69.10575439 38.15625 71.12109375 C36.51793135 73.78336155 36 75.8824426 36 79 C37.3739373 81.87872577 38.74989437 83.74989437 41 86 C41 86.99 41 87.98 41 89 C32.16846012 89.04628239 23.3369618 89.08184825 14.50532722 89.10362434 C10.40471243 89.11407426 6.30418042 89.12825537 2.20361328 89.15087891 C-1.75155581 89.1725644 -5.70664511 89.18455952 -9.66186905 89.18975449 C-11.17299786 89.19345799 -12.68412217 89.20068975 -14.19521713 89.21146011 C-16.30716232 89.22591823 -18.41877524 89.22798037 -20.53076172 89.22705078 C-21.73433319 89.231492 -22.93790466 89.23593323 -24.177948 89.24050903 C-27 89 -27 89 -29 87 C-29.33 87.66 -29.66 88.32 -30 89 C-36.06885317 89.12348196 -42.13697742 89.21428371 -48.20678711 89.2746582 C-50.27202081 89.2998222 -52.33716529 89.33395684 -54.40209961 89.37719727 C-57.36855047 89.43776616 -60.33382552 89.46619036 -63.30078125 89.48828125 C-64.2258699 89.51408768 -65.15095856 89.5398941 -66.1040802 89.56648254 C-68.50578806 89.5675364 -70.65703825 89.527835 -73 89 C-75.12182617 86.63354492 -75.12182617 86.63354492 -76 84 C-75.72323446 81.09396188 -74.92416454 78.77249363 -74 76 C-74.33 75.34 -74.66 74.68 -75 74 C-75.58608059 66.73260073 -75.58608059 66.73260073 -73 63.5 C-72.34 63.005 -71.68 62.51 -71 62 C-70.67 63.98 -70.34 65.96 -70 68 C-69.01 67.01 -69.01 67.01 -68 66 C-68.33 65.2575 -68.66 64.515 -69 63.75 C-70 61 -70 61 -70 57 C-67.69 57.33 -65.38 57.66 -63 58 C-62.4465236 55.92446352 -62 54.15634036 -62 52 C-61.01 52 -60.02 52 -59 52 C-58.49440092 50.56445975 -57.9957251 49.1264798 -57.5 47.6875 C-57.2215625 46.88699219 -56.943125 46.08648437 -56.65625 45.26171875 C-55.86066893 42.91230578 -55.86066893 42.91230578 -56 40 C-57.98 40.495 -57.98 40.495 -60 41 C-60.70226141 39.75823305 -61.38629109 38.50614401 -62.0625 37.25 C-62.44535156 36.55390625 -62.82820313 35.8578125 -63.22265625 35.140625 C-64.15230933 32.58057532 -64.03926641 31.49423939 -63 29 C-60.4375 26.75 -60.4375 26.75 -58 25 C-57 28 -57 28 -56.75 30.5625 C-56.5025 31.366875 -56.255 32.17125 -56 33 C-53.59047977 34.24714403 -53.59047977 34.24714403 -51 35 C-49 37 -49 37 -48.875 40.625 C-48.91625 41.73875 -48.9575 42.8525 -49 44 C-46.03 43.505 -46.03 43.505 -43 43 C-43.66 43.99 -44.32 44.98 -45 46 C-44.76178872 51.95528203 -42.56691595 56.73483752 -40 62 C-39.34 61.34 -38.68 60.68 -38 60 C-38.32326553 56.40320934 -38.32326553 56.40320934 -39 53 C-36.76711635 53.38497994 -35.16343698 53.89493337 -33.25 55.125 C-31.33502733 57.99745901 -31.81008505 60.64483583 -32 64 C-31.67 64 -31.34 64 -31 64 C-31.04640625 63.443125 -31.0928125 62.88625 -31.140625 62.3125 C-31.43676823 56.05118604 -30.14498342 52.40544025 -27 47 C-26.34 47 -25.68 47 -25 47 C-24.34 49.64 -23.68 52.28 -23 55 C-21.68 55.33 -20.36 55.66 -19 56 C-18.37392049 50.1148526 -19.80793832 46.91829954 -22.90625 41.91796875 C-24 40 -24 40 -24 38 C-22.56068883 38.45261358 -21.12361001 38.91232979 -19.6875 39.375 C-18.88699219 39.63023438 -18.08648437 39.88546875 -17.26171875 40.1484375 C-15 41 -15 41 -12 43 C-9.32092295 37.11851737 -9.32092295 37.11851737 -10 31 C-9.01 30.505 -9.01 30.505 -8 30 C-5.27348336 31.88758844 -3.33857582 33.26309968 -1.9375 36.3125 C-2.01392753 39.59888395 -3.27195345 41.54968181 -5.0078125 44.28515625 C-6.26477185 46.45761749 -6.69970434 48.52256081 -7 51 C-7.66 51 -8.32 51 -9 51 C-7.10955296 53.10049671 -5.35917537 54.40541966 -2.9375 55.9375 C1.07224335 58.75285171 1.07224335 58.75285171 2 62 C2.98108339 68.8675837 0.02027862 74.03494973 -3 80 C-2.30132812 79.6390625 -1.60265625 79.278125 -0.8828125 78.90625 C0.48230469 78.21015625 0.48230469 78.21015625 1.875 77.5 C3.23238281 76.80390625 3.23238281 76.80390625 4.6171875 76.09375 C7 75 7 75 9 75 C8.690625 74.071875 8.38125 73.14375 8.0625 72.1875 C7.375 70.125 6.6875 68.0625 6 66 C7.98 66.33 9.96 66.66 12 67 C12 65.68 12 64.36 12 63 C11.319375 62.814375 10.63875 62.62875 9.9375 62.4375 C5.00068961 60.02161407 1.09278643 56.77194606 -0.9609375 51.5625 C-2.26583498 46.00397569 -1.61242302 42.48223827 0 37 C-0.97383946 35.31791365 -1.97695052 33.65261839 -3 32 C-4.37797816 25.2085362 -1.97342744 19.92181652 1.00390625 13.89453125 C2.18653441 10.45795295 1.85252673 8.49245324 1 5 C0.814375 4.05125 0.62875 3.1025 0.4375 2.125 C0.2209375 1.073125 0.2209375 1.073125 0 0 Z M8 21 C9 23 9 23 9 23 Z M2 39 C2.33 40.98 2.66 42.96 3 45 C3.99 45.33 4.98 45.66 6 46 C5.72965366 43.56282742 5.72965366 43.56282742 5 41 C4.01 40.34 3.02 39.68 2 39 Z M-57 55 C-56 58 -56 58 -56 58 Z M-10 55 C-10.33 56.98 -10.66 58.96 -11 61 C-9.68 61 -8.36 61 -7 61 C-7.57344937 58.13275314 -7.8614515 57.1385485 -10 55 Z M-58 59 C-59.80512197 62.43777074 -59.80512197 62.43777074 -59.3125 66.125 C-58.08774508 68.04424838 -58.08774508 68.04424838 -56.375 69.375 C-55 71 -55 71 -54.6875 73.875 C-54.99600308 76.96003079 -55.68659336 79.2090109 -57 82 C-54.56282742 81.72965366 -54.56282742 81.72965366 -52 81 C-51.34 80.01 -50.68 79.02 -50 78 C-50.66 77.01 -51.32 76.02 -52 75 C-51.01 74.34 -50.02 73.68 -49 73 C-49.78375 72.236875 -50.5675 71.47375 -51.375 70.6875 C-55.15112288 66.82146944 -56.29582301 64.28132742 -57 59 C-57.33 59 -57.66 59 -58 59 Z M-34 64 C-34.66 65.65 -35.32 67.3 -36 69 C-35.01 69 -34.02 69 -33 69 C-33 67.35 -33 65.7 -33 64 C-33.33 64 -33.66 64 -34 64 Z M-29 68 C-28.67 69.32 -28.34 70.64 -28 72 C-27.34 71.67 -26.68 71.34 -26 71 C-26 72.65 -26 74.3 -26 76 C-24.35 76.33 -22.7 76.66 -21 77 C-21.17460942 74.64277278 -21.6996332 73.30294138 -23.3671875 71.62109375 C-25.87426201 69.10520622 -25.87426201 69.10520622 -29 68 Z M-71 78 C-71 78.99 -71 79.98 -71 81 C-70.34 81 -69.68 81 -69 81 C-69.33 80.01 -69.66 79.02 -70 78 C-70.33 78 -70.66 78 -71 78 Z M-33 79 C-33.25030977 81.41619823 -33.25030977 81.41619823 -33 84 C-31.515 84.99 -31.515 84.99 -30 86 C-30.66 83.69 -31.32 81.38 -32 79 C-32.33 79 -32.66 79 -33 79 Z " fill="#1D110C" transform="translate(81,15)"/>
<path d="M0 0 C6.6 0 13.2 0 20 0 C20 2.97 20 5.94 20 9 C20.99 9 21.98 9 23 9 C23 6.03 23 3.06 23 0 C32.57 0 42.14 0 52 0 C52.99 2.31 53.98 4.62 55 7 C57.22189824 4.77810176 57.92598892 2.91517292 59 0 C61.64 0 64.28 0 67 0 C67 2.97 67 5.94 67 9 C68.32 9 69.64 9 71 9 C71.99 6.03 72.98 3.06 74 0 C76.31 0 78.62 0 81 0 C81.495 0.99 81.495 0.99 82 2 C82.33 1.34 82.66 0.68 83 0 C90.26 0 97.52 0 105 0 C105.495 1.485 105.495 1.485 106 3 C106.66 2.01 107.32 1.02 108 0 C111.625 -0.1875 111.625 -0.1875 115 0 C114.5359375 1.0828125 114.5359375 1.0828125 114.0625 2.1875 C113.07439461 4.80307309 112.4712246 7.25118982 112 10 C112.99 10.33 113.98 10.66 115 11 C115 13.64 115 16.28 115 19 C111.625 19.1875 111.625 19.1875 108 19 C107.01 17.515 107.01 17.515 106 16 C105.505 17.485 105.505 17.485 105 19 C101.04 19 97.08 19 93 19 C93 17.68 93 16.36 93 15 C92.34 15 91.68 15 91 15 C90.67 16.32 90.34 17.64 90 19 C86.37 19 82.74 19 79 19 C79 17.68 79 16.36 79 15 C77.68 15 76.36 15 75 15 C75 15.66 75 16.32 75 17 C74.34 17 73.68 17 73 17 C73 17.66 73 18.32 73 19 C68.71 19 64.42 19 60 19 C60 18.01 60 17.02 60 16 C59.34 16 58.68 16 58 16 C58 16.66 58 17.32 58 18 C55.69 17.67 53.38 17.34 51 17 C51 17.66 51 18.32 51 19 C46.71 19 42.42 19 38 19 C38 17.68 38 16.36 38 15 C37.34 15 36.68 15 36 15 C36 16.32 36 17.64 36 19 C29.07 19 22.14 19 15 19 C14.34 16.69 13.68 14.38 13 12 C12.01 12.66 11.02 13.32 10 14 C9.01 14.33 8.02 14.66 7 15 C7 16.32 7 17.64 7 19 C4.69 19 2.38 19 0 19 C-0.76136084 16.71591749 -1.05265767 15.25576584 -0.5625 12.875 C0.26233589 8.65917211 0 4.29576059 0 0 Z M7 5 C7 5.66 7 6.32 7 7 C8.98 7 10.96 7 13 7 C13 6.34 13 5.68 13 5 C11.02 5 9.04 5 7 5 Z M20 12 C20.66 12.66 21.32 13.32 22 14 C22 13.34 22 12.68 22 12 C21.34 12 20.68 12 20 12 Z M35 13 C36 15 36 15 36 15 Z " fill="#1C0E0C" transform="translate(8,105)"/>
<path d="M0 0 C1 3 1 3 1.25 5.5625 C1.4975 6.366875 1.745 7.17125 2 8 C4.40952023 9.24714403 4.40952023 9.24714403 7 10 C9 12 9 12 9.125 15.625 C9.08375 16.73875 9.0425 17.8525 9 19 C10.98 18.67 12.96 18.34 15 18 C14.34 18.99 13.68 19.98 13 21 C13.23821128 26.95528203 15.43308405 31.73483752 18 37 C18.66 36.34 19.32 35.68 20 35 C19.67673447 31.40320934 19.67673447 31.40320934 19 28 C20.9375 28.375 20.9375 28.375 23 29 C24.50662097 32.01324195 24.17770373 34.68286377 24 38 C23.34 38.66 22.68 39.32 22 40 C21.35232207 42.57061311 21.35232207 42.57061311 21 45 C22.65 45 24.3 45 26 45 C26.33 44.01 26.66 43.02 27 42 C28 43 28 43 28.3125 45.1875 C28 48 28 48 25.9375 50.9375 C23.68001328 53.8467794 23.68001328 53.8467794 24.1875 57.1875 C24.75077037 59.13728206 25.35821159 61.07463477 26 63 C20.3766798 63.09892174 14.75386667 63.17149342 9.12988281 63.21972656 C7.21703265 63.23983452 5.30424389 63.26712507 3.39160156 63.30175781 C0.64112189 63.35031249 -2.10854477 63.37297658 -4.859375 63.390625 C-5.71368103 63.41127014 -6.56798706 63.43191528 -7.44818115 63.45318604 C-13.36899557 63.45542059 -13.36899557 63.45542059 -16.58300781 61.13574219 C-18 59 -18 59 -17.8125 56.4375 C-17.20833333 54.625 -16.60416667 52.8125 -16 51 C-16.33 50.34 -16.66 49.68 -17 49 C-17.58608059 41.73260073 -17.58608059 41.73260073 -15 38.5 C-14.34 38.005 -13.68 37.51 -13 37 C-12.67 38.98 -12.34 40.96 -12 43 C-11.34 42.34 -10.68 41.68 -10 41 C-10.33 40.2575 -10.66 39.515 -11 38.75 C-12 36 -12 36 -12 32 C-9.69 32.33 -7.38 32.66 -5 33 C-4.4465236 30.92446352 -4 29.15634036 -4 27 C-3.01 27 -2.02 27 -1 27 C-0.49440092 25.56445975 0.0042749 24.1264798 0.5 22.6875 C0.7784375 21.88699219 1.056875 21.08648437 1.34375 20.26171875 C2.13933107 17.91230578 2.13933107 17.91230578 2 15 C0.68 15.33 -0.64 15.66 -2 16 C-2.70226141 14.75823305 -3.38629109 13.50614401 -4.0625 12.25 C-4.44535156 11.55390625 -4.82820313 10.8578125 -5.22265625 10.140625 C-6.15230933 7.58057532 -6.03926641 6.49423939 -5 4 C-2.4375 1.75 -2.4375 1.75 0 0 Z M1 30 C2 33 2 33 2 33 Z M0 34 C-1.80512197 37.43777074 -1.80512197 37.43777074 -1.3125 41.125 C-0.08774508 43.04424838 -0.08774508 43.04424838 1.625 44.375 C3 46 3 46 3.3125 48.875 C3.00399692 51.96003079 2.31340664 54.2090109 1 57 C3.43717258 56.72965366 3.43717258 56.72965366 6 56 C6.66 55.01 7.32 54.02 8 53 C7.34 52.01 6.68 51.02 6 50 C6.99 49.34 7.98 48.68 9 48 C8.21625 47.236875 7.4325 46.47375 6.625 45.6875 C2.84887712 41.82146944 1.70417699 39.28132742 1 34 C0.67 34 0.34 34 0 34 Z M-13 53 C-13 53.99 -13 54.98 -13 56 C-12.34 56 -11.68 56 -11 56 C-11.33 55.01 -11.66 54.02 -12 53 C-12.33 53 -12.66 53 -13 53 Z " fill="#211704" transform="translate(23,40)"/>
<path d="M0 0 C2 1.125 2 1.125 4 3 C4.72214676 7.06207554 4.1584108 8.72916863 2.0625 12.3125 C0 15 0 15 -1 16 C-1.04080783 17.99958364 -1.04254356 20.00045254 -1 22 C1.31 22.33 3.62 22.66 6 23 C6.66 21.68 7.32 20.36 8 19 C9 20 9 20 9.4375 22.9375 C9.4298244 26.68319455 8.02874916 28.84425422 6 31.9375 C2.92005632 36.74717508 2.0561113 39.33666777 3 45 C4.32 46.98 5.64 48.96 7 51 C-7.19 51 -21.38 51 -36 51 C-34.81679389 46.26717557 -34.81679389 46.26717557 -32 44 C-30.30015988 43.04969568 -28.567809 42.15596017 -26.8125 41.3125 C-25.91144531 40.87550781 -25.01039062 40.43851563 -24.08203125 39.98828125 C-23.05142578 39.49908203 -23.05142578 39.49908203 -22 39 C-22.33 36.69 -22.66 34.38 -23 32 C-21.68 32.66 -20.36 33.32 -19 34 C-19 33.01 -19 32.02 -19 31 C-18.68911632 29.32900023 -18.35919668 27.66128463 -18 26 C-16.66666667 28 -15.33333333 30 -14 32 C-12.515 32.495 -12.515 32.495 -11 33 C-11.495 32.13375 -11.99 31.2675 -12.5 30.375 C-14.13638315 26.69313791 -14.7262384 24.95396462 -14 21 C-11.51912627 17.16359733 -8.44008331 14.26986267 -4.75 11.625 C-1.08063715 8.12242637 -0.61989796 4.9057442 0 0 Z " fill="#F73000" transform="translate(113,51)"/>
<path d="M0 0 C3.87705056 0.57437786 6.11543577 2.42728055 9 5 C10.50156874 8.00313748 10.09281204 10.79067522 10.0625 14.125 C10.05347656 15.40632813 10.04445313 16.68765625 10.03515625 18.0078125 C10.02355469 18.99523437 10.01195313 19.98265625 10 21 C11.32 21 12.64 21 14 21 C14 19.02 14 17.04 14 15 C19.2295082 17.3442623 19.2295082 17.3442623 21 20 C22.12587017 26.88031768 19.71182469 31.13723191 16.3125 37.0703125 C14.8665581 40.29786138 14.75103856 42.50416641 15 46 C11.5627834 46.11604679 8.12606914 46.18719508 4.6875 46.25 C3.71103516 46.28351563 2.73457031 46.31703125 1.72851562 46.3515625 C0.32182617 46.37089844 0.32182617 46.37089844 -1.11328125 46.390625 C-1.97735596 46.41157227 -2.84143066 46.43251953 -3.73168945 46.45410156 C-6 46 -6 46 -7.78710938 44.109375 C-9.7568431 40.68375113 -9.19448932 37.88978647 -9 34 C-8.01 34 -7.02 34 -6 34 C-5.34 34.99 -4.68 35.98 -4 37 C-2.68 37 -1.36 37 0 37 C0.356132 33.76089471 0.34548779 32.43677841 -1.71484375 29.83203125 C-2.44832031 29.16558594 -3.18179688 28.49914062 -3.9375 27.8125 C-8.90729282 23.22837011 -8.90729282 23.22837011 -9.25 18.6875 C-8.9886592 14.83272318 -8.23869739 13.07820891 -6 10 C-5.566875 10.928125 -5.566875 10.928125 -5.125 11.875 C-4.06279958 14.13325765 -4.06279958 14.13325765 -2 16 C0.60280568 15.67958603 0.60280568 15.67958603 3 15 C3.35050464 9.158256 3.16727335 5.1468192 0 0 Z " fill="#F66D00" transform="translate(60,56)"/>
<path d="M0 0 C3.26460973 1.80412643 4.88929795 2.83394693 7 6 C7.37072444 10.91209877 6.53675794 14.38972619 5 19 C4.66582071 22.6675213 4.66582071 22.6675213 5 26 C5.66 26.66 6.32 27.32 7 28 C7.0825 26.741875 7.165 25.48375 7.25 24.1875 C7.71364236 20.27768014 7.71364236 20.27768014 10.0625 18 C10.701875 17.67 11.34125 17.34 12 17 C11.87625 18.27875 11.7525 19.5575 11.625 20.875 C11.58494486 25.14754832 12.60678174 27.36944086 15 30.875 C18.5302758 36.2624351 19.12428627 40.67943266 18 47 C16.44502092 51.4846498 14.03713939 55.35543274 11 59 C6.72270913 58.5132738 4.97941484 57.42203651 2.25 54.125 C1.65703125 53.42632812 1.0640625 52.72765625 0.453125 52.0078125 C-2.35647319 48.12573328 -2.08755541 44.64043661 -2 40 C-1.5875 40.66 -1.175 41.32 -0.75 42 C-0.1725 42.66 0.405 43.32 1 44 C2.32 44 3.64 44 5 44 C4.37658569 40.27683123 2.70328007 37.89999517 0.5 34.875 C-2.89419172 30.18712045 -4.4022685 27.91191021 -4 22 C-2.90625 19.25390625 -2.90625 19.25390625 -1.5 16.5625 C1.26110317 10.82190133 1.97244424 6.16388825 0 0 Z " fill="#F54600" transform="translate(83,17)"/>
<path d="M0 0 C6.27 0 12.54 0 19 0 C18.96744792 2.734375 18.93489583 5.46875 18.90234375 8.203125 C18.98804423 10.65758678 19.29293934 12.66168914 20 15 C21.32 15.33 22.64 15.66 24 16 C24.33 11.05 24.66 6.1 25 1 C26.32 1 27.64 1 29 1 C29 4.3 29 7.6 29 11 C28.34 11 27.68 11 27 11 C27.99 12.32 28.98 13.64 30 15 C31.10228696 10.59085217 31.07654536 6.51617599 31 2 C33.97 2 36.94 2 40 2 C40 2.33 40 2.66 40 3 C38.02 3 36.04 3 34 3 C34 4.98 34 6.96 34 9 C35.98 9 37.96 9 40 9 C40 9.66 40 10.32 40 11 C41.32 11 42.64 11 44 11 C44.66 7.7 45.32 4.4 46 1 C47.65 1 49.3 1 51 1 C51.99 3.97 52.98 6.94 54 10 C52.35 10 50.7 10 49 10 C49 12.64 49 15.28 49 18 C49.66 18.33 50.32 18.66 51 19 C46.71 19 42.42 19 38 19 C38 17.68 38 16.36 38 15 C37.34 15 36.68 15 36 15 C36 16.32 36 17.64 36 19 C29.07 19 22.14 19 15 19 C14.34 16.69 13.68 14.38 13 12 C12.01 12.66 11.02 13.32 10 14 C9.01 14.33 8.02 14.66 7 15 C7 16.32 7 17.64 7 19 C4.69 19 2.38 19 0 19 C-0.76136084 16.71591749 -1.05265767 15.25576584 -0.5625 12.875 C0.2795549 8.57116386 0.05842246 4.38168486 0 0 Z M7 5 C7 5.66 7 6.32 7 7 C8.98 7 10.96 7 13 7 C13 6.34 13 5.68 13 5 C11.02 5 9.04 5 7 5 Z M35 13 C36 15 36 15 36 15 Z " fill="#110C07" transform="translate(8,105)"/>
<path d="M0 0 C3.50939652 0.87734913 5.66214037 1.68040306 8.3125 4.1875 C10.84284601 8.40474334 11.28264614 12.10223309 10.5625 16.9375 C10.2840625 17.9584375 10.2840625 17.9584375 10 19 C10.763125 18.484375 11.52625 17.96875 12.3125 17.4375 C13.199375 16.963125 14.08625 16.48875 15 16 C15.99 16.33 16.98 16.66 18 17 C17.484375 17.70125 16.96875 18.4025 16.4375 19.125 C14.63268047 22.73463906 15.04834869 24.12677916 16 28 C16.96049795 29.9476025 17.98482572 31.86470693 19.0625 33.75 C22.01534316 39.38788671 22.75052566 43.71782229 22 50 C27.18940468 46.3022146 27.18940468 46.3022146 29.875 40.75 C29.91625 39.8425 29.9575 38.935 30 38 C30.495 37.01 30.495 37.01 31 36 C32 37 32 37 32.4375 39.625 C31.52863071 46.63627737 25.20110494 50.76654249 20 55 C18.76285105 57.4742979 19.04418638 58.71499333 19.375 61.4375 C19.46523437 62.21996094 19.55546875 63.00242188 19.6484375 63.80859375 C19.96651128 66.16946986 19.96651128 66.16946986 21 69 C19.1875 68.8125 19.1875 68.8125 17 68 C16.01 66.35 15.02 64.7 14 63 C14.33 67.29 14.66 71.58 15 76 C14.34 74.68 13.68 73.36 13 72 C12.01120795 70.32665961 11.01351664 68.65848177 10 67 C10.66 67 11.32 67 12 67 C12 65.68 12 64.36 12 63 C11.319375 62.814375 10.63875 62.62875 9.9375 62.4375 C5.00068961 60.02161407 1.09278643 56.77194606 -0.9609375 51.5625 C-2.26583498 46.00397569 -1.61242302 42.48223827 0 37 C-0.97383946 35.31791365 -1.97695052 33.65261839 -3 32 C-4.37797816 25.2085362 -1.97342744 19.92181652 1.00390625 13.89453125 C2.18653441 10.45795295 1.85252673 8.49245324 1 5 C0.814375 4.05125 0.62875 3.1025 0.4375 2.125 C0.293125 1.42375 0.14875 0.7225 0 0 Z M2 2 C2.165 2.515625 2.33 3.03125 2.5 3.5625 C3.94884112 10.62560048 2.34522182 15.03095047 -0.90625 21.25390625 C-2.18176659 24.45636396 -2.38509033 26.57949174 -2 30 C-0.85362277 32.45738668 -0.85362277 32.45738668 0.8125 34.625 C1.59560547 35.72714844 1.59560547 35.72714844 2.39453125 36.8515625 C3.46628675 38.28578519 4.5684235 39.69778885 5.69921875 41.0859375 C7 43 7 43 7 46 C4.625 45.6875 4.625 45.6875 2 45 C1.34 44.01 0.68 43.02 0 42 C-0.31646072 47.27434536 0.07078192 50.55892743 3 55 C5.16669969 57.23841079 7.37259336 59.3160712 10 61 C10.99 61 11.98 61 13 61 C14.6642457 59.10988445 14.6642457 59.10988445 16.125 56.6875 C16.64320312 55.88699219 17.16140625 55.08648437 17.6953125 54.26171875 C20.66161701 49.1195322 20.84352949 43.78311663 20 38 C18.63016121 35.31224051 17.03538978 32.92683856 15.3359375 30.4375 C13.18541154 26.51373334 13.57597467 23.38159511 14 19 C11.89788303 19.96663749 11.89788303 19.96663749 10 22 C9.33450549 24.69924572 9.18319237 27.20631637 9 30 C7 28 7 28 6.75 24.75 C6.99367576 21.0948636 7.85112811 18.44661567 9 15 C9.44603983 10.76262163 9.4783187 8.75871242 7.1875 5.125 C5.10416336 2.79349596 5.10416336 2.79349596 2 2 Z M8 21 C9 23 9 23 9 23 Z M2 39 C2.33 40.98 2.66 42.96 3 45 C3.99 45.33 4.98 45.66 6 46 C5.72965366 43.56282742 5.72965366 43.56282742 5 41 C4.01 40.34 3.02 39.68 2 39 Z " fill="#1E0D07" transform="translate(81,15)"/>
<path d="M0 0 C1.79133978 -0.05391993 3.58313899 -0.09275571 5.375 -0.125 C6.37273437 -0.14820312 7.37046875 -0.17140625 8.3984375 -0.1953125 C11 0 11 0 13 2 C13.125 5 13.125 5 13 8 C13 8.66 13 9.32 13 10 C13.66 6.7 14.32 3.4 15 0 C16.32 0 17.64 0 19 0 C19.33 1.98 19.66 3.96 20 6 C20.5775 5.01 21.155 4.02 21.75 3 C22.4925 2.01 23.235 1.02 24 0 C25.32 0 26.64 0 28 0 C27.4740625 0.8353125 27.4740625 0.8353125 26.9375 1.6875 C25.78154007 4.53886783 26.19032562 6.08517222 27 9 C27.99 9.33 28.98 9.66 30 10 C30 12.64 30 15.28 30 18 C26.625 18.1875 26.625 18.1875 23 18 C22.34 17.01 21.68 16.02 21 15 C20.67 15.99 20.34 16.98 20 18 C16.37 18 12.74 18 9 18 C9 16.35 9 14.7 9 13 C8.34 13 7.68 13 7 13 C7 12.01 7 11.02 7 10 C5.68 10 4.36 10 3 10 C3.33 12.31 3.66 14.62 4 17 C2.68 17 1.36 17 0 17 C0 15.02 0 13.04 0 11 C0.66 11 1.32 11 2 11 C2 10.34 2 9.68 2 9 C1.34 9 0.68 9 0 9 C0 6.03 0 3.06 0 0 Z " fill="#2E0603" transform="translate(93,106)"/>
<path d="M0 0 C0.33 0 0.66 0 1 0 C1.125 2.875 1.125 2.875 1 6 C0.34 6.66 -0.32 7.32 -1 8 C-1.64767793 10.57061311 -1.64767793 10.57061311 -2 13 C-0.35 13 1.3 13 3 13 C3.33 12.01 3.66 11.02 4 10 C5 11 5 11 5.3125 13.1875 C5 16 5 16 2.9375 18.9375 C0.6751333 21.8555278 0.6751333 21.8555278 1.1875 25.25 C1.89186474 27.92994054 1.89186474 27.92994054 3 30 C-5.58 30 -14.16 30 -23 30 C-22 27 -22 27 -19.0625 25.3125 C-16 24 -16 24 -14 24 C-14.33 22.35 -14.66 20.7 -15 19 C-14.34 19 -13.68 19 -13 19 C-12.67 19.33 -12.34 19.66 -12 20 C-12 18.35 -12 16.7 -12 15 C-10.35 16.65 -8.7 18.3 -7 20 C-7.66 19.01 -8.32 18.02 -9 17 C-9.625 14.3125 -9.625 14.3125 -9 11 C-7.08726047 8.75072056 -5.04798386 6.79951996 -2.84765625 4.83203125 C-0.76287797 3.04031312 -0.76287797 3.04031312 0 0 Z " fill="#F19400" transform="translate(46,72)"/>
<path d="M0 0 C0.33 0 0.66 0 1 0 C1 2.97 1 5.94 1 9 C1.99 9 2.98 9 4 9 C4 6.03 4 3.06 4 0 C13.57 0 23.14 0 33 0 C33.99 2.31 34.98 4.62 36 7 C38.22189824 4.77810176 38.92598892 2.91517292 40 0 C41.98 0 43.96 0 46 0 C45.401875 0.165 44.80375 0.33 44.1875 0.5 C40.81472202 2.81276204 40.1668452 6.19891337 39 10 C39.66 10.33 40.32 10.66 41 11 C40.01 11 39.02 11 38 11 C38 11.66 38 12.32 38 13 C37.34 13 36.68 13 36 13 C36 12.34 36 11.68 36 11 C35.01 11 34.02 11 33 11 C33.495 13.475 33.495 13.475 34 16 C35.32 16.33 36.64 16.66 38 17 C38.495 15.515 38.495 15.515 39 14 C39.495 14.99 39.495 14.99 40 16 C39.67 16.66 39.34 17.32 39 18 C36.03 18 33.06 18 30 18 C29.67 15.36 29.34 12.72 29 10 C31.49092811 8.75453595 32.41080733 9.2232422 35 10 C34.505 9.071875 34.01 8.14375 33.5 7.1875 C32 4 32 4 32 1 C30.35 1 28.7 1 27 1 C27 5.29 27 9.58 27 14 C26.34 13.01 25.68 12.02 25 11 C23.68 11 22.36 11 21 11 C21 10.34 21 9.68 21 9 C19.02 9 17.04 9 15 9 C15 7.02 15 5.04 15 3 C14.01 2.67 13.02 2.34 12 2 C12.08378906 2.56847656 12.16757812 3.13695313 12.25390625 3.72265625 C12.91910197 8.76635545 12.9568837 13.00294069 12 18 C9 16 9 16 8.3125 13.375 C8.209375 12.59125 8.10625 11.8075 8 11 C8.66 11 9.32 11 10 11 C10 7.7 10 4.4 10 1 C8.68 1 7.36 1 6 1 C6.01160156 1.83144531 6.02320313 2.66289063 6.03515625 3.51953125 C6.04417969 4.60621094 6.05320312 5.69289063 6.0625 6.8125 C6.07410156 7.89144531 6.08570313 8.97039062 6.09765625 10.08203125 C6 13 6 13 5 16 C3.35 15.67 1.7 15.34 0 15 C0 13.68 0 12.36 0 11 C-0.66 10.67 -1.32 10.34 -2 10 C-1.34 10 -0.68 10 0 10 C0 6.7 0 3.4 0 0 Z M1 12 C1.66 12.66 2.32 13.32 3 14 C3 13.34 3 12.68 3 12 C2.34 12 1.68 12 1 12 Z " fill="#1A1108" transform="translate(27,105)"/>
<path d="M0 0 C4.875 2.75 4.875 2.75 6 5 C6.13415472 7.6723621 6.04318541 10.32250488 6 13 C6.99 13 7.98 13 9 13 C9 12.01 9 11.02 9 10 C9.66 10 10.32 10 11 10 C12.53214888 13.06429776 12.22938548 15.6165642 12 19 C10.5625 21.6875 10.5625 21.6875 9 24 C8.63103944 25.32391729 8.29125221 26.65684661 8 28 C6.04196493 28.05389087 4.08351091 28.09274217 2.125 28.125 C0.48917969 28.15980469 0.48917969 28.15980469 -1.1796875 28.1953125 C-4 28 -4 28 -6 26 C-6.125 23.375 -6.125 23.375 -6 21 C-4.02 21.33 -2.04 21.66 0 22 C-1.1475922 19.41791754 -2.24802602 17.73071461 -4.1875 15.625 C-6 13 -6 13 -5.75 9.6875 C-5.5025 8.800625 -5.255 7.91375 -5 7 C-4.34 7.66 -3.68 8.32 -3 9 C-1.35 9.33 0.3 9.66 2 10 C1.34 6.7 0.68 3.4 0 0 Z " fill="#F0B900" transform="translate(13,74)"/>
<path d="M0 0 C2 1.0625 2 1.0625 4 3 C4.3125 6.625 4.3125 6.625 4 10 C3.67 10.33 3.34 10.66 3 11 C2.83333333 13.5 2.83333333 13.5 3 16 C3.33 16.33 3.66 16.66 4 17 C4.33 15.35 4.66 13.7 5 12 C5.2475 12.515625 5.495 13.03125 5.75 13.5625 C7.06006035 16.20511991 7.06006035 16.20511991 9.125 19.375 C11.0407805 22.75282351 11.66886943 25.07039209 11 29 C9.25 32.375 9.25 32.375 7 35 C5.68 35 4.36 35 3 35 C0.6875 32.6875 0.6875 32.6875 -1 30 C-0.67 29.01 -0.34 28.02 0 27 C0.99 27.33 1.98 27.66 3 28 C2.04339848 25.35094963 1.26923506 23.30030064 -0.625 21.1875 C-2.79376509 17.7371919 -2.32042639 15.03737258 -2 11 C-1.34 10.01 -0.68 9.02 0 8 C0.24055468 5.94290404 0.24055468 5.94290404 0.125 3.8125 C0.08375 2.554375 0.0425 1.29625 0 0 Z " fill="#F0A100" transform="translate(27,50)"/>
<path d="M0 0 C-0.02320312 0.69867188 -0.04640625 1.39734375 -0.0703125 2.1171875 C-0.08835937 3.02726562 -0.10640625 3.93734375 -0.125 4.875 C-0.14820312 5.77992187 -0.17140625 6.68484375 -0.1953125 7.6171875 C-0.24324836 10.18806994 -0.24324836 10.18806994 2 12 C1.34 12 0.68 12 0 12 C0.33 14.31 0.66 16.62 1 19 C-1.64 19 -4.28 19 -7 19 C-7.66 17.68 -8.32 16.36 -9 15 C-9.33 15.66 -9.66 16.32 -10 17 C-11.32 16.67 -12.64 16.34 -14 16 C-14.33 14.35 -14.66 12.7 -15 11 C-14.01 11 -13.02 11 -12 11 C-12 11.66 -12 12.32 -12 13 C-11.34 13 -10.68 13 -10 13 C-9.81824219 12.07767578 -9.81824219 12.07767578 -9.6328125 11.13671875 C-9.38144531 9.92435547 -9.38144531 9.92435547 -9.125 8.6875 C-8.96257812 7.88699219 -8.80015625 7.08648437 -8.6328125 6.26171875 C-8 4 -8 4 -6 1 C-3.88864324 0.27422112 -2.22998296 0 0 0 Z " fill="#26211F" transform="translate(75,105)"/>
<path d="M0 0 C1 3 1 3 1.25 5.5625 C1.4975 6.366875 1.745 7.17125 2 8 C4.40952023 9.24714403 4.40952023 9.24714403 7 10 C9 12 9 12 9.125 15.625 C9.08375 16.73875 9.0425 17.8525 9 19 C10.98 18.67 12.96 18.34 15 18 C14.34 18.99 13.68 19.98 13 21 C13.22184787 24.91931239 13.80818706 27.63112896 15.625 31.125 C17.17438984 34.36463331 17.08407539 35.64922152 16 39 C15.67 39 15.34 39 15 39 C14.731875 37.783125 14.46375 36.56625 14.1875 35.3125 C13.31505639 31.77878956 12.07843061 29.0231718 10 26 C9.34 26.66 8.68 27.32 8 28 C6 26 6 26 5.8125 23.4375 C6 21 6 21 7 20 C7.25003964 16.54178598 7.25003964 16.54178598 7 13 C6.34 12.34 5.68 11.68 5 11 C2.48916886 12.25541557 2.12874554 13.50063488 1 16 C0.01 16 -0.98 16 -2 16 C-2.70226141 14.75823305 -3.38629109 13.50614401 -4.0625 12.25 C-4.44535156 11.55390625 -4.82820313 10.8578125 -5.22265625 10.140625 C-6.15230933 7.58057532 -6.03926641 6.49423939 -5 4 C-2.4375 1.75 -2.4375 1.75 0 0 Z " fill="#1E190C" transform="translate(23,40)"/>
<path d="M0 0 C-0.10699219 0.58007812 -0.21398437 1.16015625 -0.32421875 1.7578125 C-1.17564959 7.30584571 -0.78022196 9.99560047 2 15 C2.60431655 20.13669065 2.60431655 20.13669065 0.6875 22.875 C-1 24 -1 24 -4 24 C-3.8453125 22.9171875 -3.8453125 22.9171875 -3.6875 21.8125 C-3.72994954 18.76248574 -3.72994954 18.76248574 -6.4375 16.5625 C-9 14 -9 14 -10 11 C-10 7.34076304 -9.24243223 5.86103423 -7 3 C-4.3710719 0.61753391 -3.61165822 0 0 0 Z " fill="#1B0F08" transform="translate(78,3)"/>
<path d="M0 0 C1.79133978 -0.05391993 3.58313899 -0.09275571 5.375 -0.125 C6.37273437 -0.14820312 7.37046875 -0.17140625 8.3984375 -0.1953125 C11 0 11 0 13 2 C13.44286767 6.76082745 12.43305609 10.52169972 11 15 C11.66 15.33 12.32 15.66 13 16 C12.01 16 11.02 16 10 16 C10 15.01 10 14.02 10 13 C9.01 13 8.02 13 7 13 C7 12.01 7 11.02 7 10 C5.68 10 4.36 10 3 10 C3.33 12.31 3.66 14.62 4 17 C2.68 17 1.36 17 0 17 C0 15.02 0 13.04 0 11 C0.66 11 1.32 11 2 11 C2 10.34 2 9.68 2 9 C1.34 9 0.68 9 0 9 C0 6.03 0 3.06 0 0 Z " fill="#C61600" transform="translate(93,106)"/>
<path d="M0 0 C1.32 0 2.64 0 4 0 C4.495 4.455 4.495 4.455 5 9 C3.1746875 10.1446875 3.1746875 10.1446875 1.3125 11.3125 C0.58417969 11.77140625 -0.14414063 12.2303125 -0.89453125 12.703125 C-2.52445011 13.70708244 -4.19304416 14.64839356 -5.875 15.5625 C-8.42614142 17.03518078 -8.42614142 17.03518078 -10 21 C4.19 21 18.38 21 33 21 C33 21.33 33 21.66 33 22 C11.55 22 -9.9 22 -32 22 C-32 21.67 -32 21.34 -32 21 C-25.4 21 -18.8 21 -12 21 C-12.33 19.02 -12.66 17.04 -13 15 C-11.78515625 12.2265625 -11.78515625 12.2265625 -10.0625 9.625 C-9.21365234 8.31402344 -9.21365234 8.31402344 -8.34765625 6.9765625 C-7.90292969 6.32429688 -7.45820312 5.67203125 -7 5 C-6 8 -6 8 -7.4375 11.1875 C-8.2109375 12.5796875 -8.2109375 12.5796875 -9 14 C-8.30132812 13.6390625 -7.60265625 13.278125 -6.8828125 12.90625 C-5.97273438 12.4421875 -5.06265625 11.978125 -4.125 11.5 C-3.22007813 11.0359375 -2.31515625 10.571875 -1.3828125 10.09375 C1 9 1 9 3 9 C2.690625 8.071875 2.38125 7.14375 2.0625 6.1875 C1.375 4.125 0.6875 2.0625 0 0 Z " fill="#5A1D02" transform="translate(87,81)"/>
<path d="M0 0 C6.93 0 13.86 0 21 0 C21.99 2.31 22.98 4.62 24 7 C26.22189824 4.77810176 26.92598892 2.91517292 28 0 C29.98 0 31.96 0 34 0 C33.401875 0.165 32.80375 0.33 32.1875 0.5 C28.81472202 2.81276204 28.1668452 6.19891337 27 10 C27.66 10.33 28.32 10.66 29 11 C28.01 11 27.02 11 26 11 C26 11.66 26 12.32 26 13 C25.34 13 24.68 13 24 13 C24 12.34 24 11.68 24 11 C23.01 11 22.02 11 21 11 C21.33 12.65 21.66 14.3 22 16 C23.32 16.33 24.64 16.66 26 17 C26.33 16.01 26.66 15.02 27 14 C27.33 14.66 27.66 15.32 28 16 C27.67 16.66 27.34 17.32 27 18 C24.03 18 21.06 18 18 18 C17.67 15.36 17.34 12.72 17 10 C19.49092811 8.75453595 20.41080733 9.2232422 23 10 C22.505 9.071875 22.01 8.14375 21.5 7.1875 C20 4 20 4 20 1 C18.35 1 16.7 1 15 1 C15 5.29 15 9.58 15 14 C14.34 13.01 13.68 12.02 13 11 C12.01 10.67 11.02 10.34 10 10 C10.66 10 11.32 10 12 10 C12 7.69 12 5.38 12 3 C9.56612247 1.78306124 7.58161154 1.68040104 4.875 1.4375 C3.96492188 1.35371094 3.05484375 1.26992187 2.1171875 1.18359375 C1.41851562 1.12300781 0.71984375 1.06242187 0 1 C0 0.67 0 0.34 0 0 Z " fill="#1A0D05" transform="translate(39,105)"/>
<path d="M0 0 C1.921875 0.171875 1.921875 0.171875 4 1 C6.76775166 5.1345426 8.64657578 9.9890377 8 15 C6.68 15.33 5.36 15.66 4 16 C4 15.01 4 14.02 4 13 C1.36 13.33 -1.28 13.66 -4 14 C-4 14.99 -4 15.98 -4 17 C-4.99 17 -5.98 17 -7 17 C-6.67 14.69 -6.34 12.38 -6 10 C-5.34 10 -4.68 10 -4 10 C-3.79503906 9.36191406 -3.59007813 8.72382812 -3.37890625 8.06640625 C-3.10949219 7.24011719 -2.84007813 6.41382812 -2.5625 5.5625 C-2.16224609 4.32693359 -2.16224609 4.32693359 -1.75390625 3.06640625 C-1 1 -1 1 0 0 Z " fill="#C92700" transform="translate(84,106)"/>
<path d="M0 0 C1.32 0 2.64 0 4 0 C3.98839844 0.67546875 3.97679687 1.3509375 3.96484375 2.046875 C3.95582031 2.93890625 3.94679688 3.8309375 3.9375 4.75 C3.92589844 5.63171875 3.91429687 6.5134375 3.90234375 7.421875 C3.99173802 9.7818838 4.33087179 11.74498524 5 14 C6.32 14.33 7.64 14.66 9 15 C9.33 10.05 9.66 5.1 10 0 C11.32 0 12.64 0 14 0 C14 3.3 14 6.6 14 10 C13.34 10 12.68 10 12 10 C12.33 11.65 12.66 13.3 13 15 C12.34 15 11.68 15 11 15 C11 15.66 11 16.32 11 17 C7.7 17 4.4 17 1 17 C-0.18681726 13.43954823 -0.09689832 10.56191663 -0.0625 6.8125 C-0.05347656 5.54019531 -0.04445313 4.26789063 -0.03515625 2.95703125 C-0.02355469 1.98121094 -0.01195313 1.00539063 0 0 Z " fill="#D56F00" transform="translate(23,106)"/>
<path d="M0 0 C0.66 0.33 1.32 0.66 2 1 C1.44271087 4.34373475 0.64826111 7.03312999 -1 10 C-3 10 -3 10 -5.125 8 C-5.74375 7.34 -6.3625 6.68 -7 6 C-6.67 8.97 -6.34 11.94 -6 15 C-10.75 15.125 -10.75 15.125 -13 14 C-12.62671065 19.35048061 -11.0042343 21.50912907 -7 25 C-7.33 25.99 -7.66 26.98 -8 28 C-9.65 27.67 -11.3 27.34 -13 27 C-12.67 28.98 -12.34 30.96 -12 33 C-12.99 32.67 -13.98 32.34 -15 32 C-15.955071 27.79768759 -16.13633265 25.73858214 -14 22 C-14.33 21.34 -14.66 20.68 -15 20 C-15.58608059 12.73260073 -15.58608059 12.73260073 -13 9.5 C-12.34 9.005 -11.68 8.51 -11 8 C-10.67 9.98 -10.34 11.96 -10 14 C-9.34 13.34 -8.68 12.68 -8 12 C-8.33 11.2575 -8.66 10.515 -9 9.75 C-10 7 -10 7 -10 3 C-8.906875 3.185625 -7.81375 3.37125 -6.6875 3.5625 C-3.06375867 4.2578068 -3.06375867 4.2578068 0 3 C0 2.01 0 1.02 0 0 Z M-11 24 C-11 24.99 -11 25.98 -11 27 C-10.34 27 -9.68 27 -9 27 C-9.33 26.01 -9.66 25.02 -10 24 C-10.33 24 -10.66 24 -11 24 Z " fill="#2A250F" transform="translate(21,69)"/>
<path d="M0 0 C0.99 0 1.98 0 3 0 C3.25 5.625 3.25 5.625 1 9 C0.35987261 14.80154192 0.35987261 14.80154192 3 19.75 C3.66 20.4925 4.32 21.235 5 22 C5 23.32 5 24.64 5 26 C4.01 26 3.02 26 2 26 C1.67 27.32 1.34 28.64 1 30 C-1.1385485 27.8614515 -1.42655063 26.86724686 -2 24 C-3.33333333 27 -3.33333333 27 -2 30 C-1.34 30.33 -0.68 30.66 0 31 C-0.33 31.66 -0.66 32.32 -1 33 C-1.66 32.67 -2.32 32.34 -3 32 C-3 32.99 -3 33.98 -3 35 C-3.99 35 -4.98 35 -6 35 C-6.29802257 29.23823033 -5.86725509 26.13716538 -3 21 C-3 20.01 -3 19.02 -3 18 C-3.66 18.66 -4.32 19.32 -5 20 C-5.33 18.35 -5.66 16.7 -6 15 C-5.01 15 -4.02 15 -3 15 C-2.51891725 13.58398286 -2.04021859 12.16715563 -1.5625 10.75 C-1.29566406 9.96109375 -1.02882813 9.1721875 -0.75390625 8.359375 C0.89061172 4.13329984 0.89061172 4.13329984 0 0 Z M-1 18 C0 21 0 21 0 21 Z " fill="#231D10" transform="translate(25,52)"/>
<path d="M0 0 C0.97591583 3.38317487 0.85856655 5.5657338 0 9 C0.763125 8.484375 1.52625 7.96875 2.3125 7.4375 C3.199375 6.963125 4.08625 6.48875 5 6 C5.99 6.33 6.98 6.66 8 7 C7.484375 7.70125 6.96875 8.4025 6.4375 9.125 C4.63219014 12.73561972 5.04910815 14.12511569 6 18 C6.95914373 19.96876871 7.9833923 21.90684171 9.0625 23.8125 C11.93157936 29.29730326 12.61198269 32.88017313 12 39 C11.67 39 11.34 39 11 39 C10.92523438 38.32195313 10.85046875 37.64390625 10.7734375 36.9453125 C10.0022003 31.4861629 8.93023735 27.44579626 5.875 22.8125 C2.84665378 18.21852819 2.39649945 15.43150498 3 10 C0.60236815 12.39763185 0.65719414 13.33273498 0.375 16.625 C0.30023438 17.44226563 0.22546875 18.25953125 0.1484375 19.1015625 C0.09945312 19.72804688 0.05046875 20.35453125 0 21 C-2 19.9375 -2 19.9375 -4 18 C-5.08207118 11.50757293 -2.41256278 5.95601435 0 0 Z M-2 11 C-1 13 -1 13 -1 13 Z " fill="#25140F" transform="translate(91,25)"/>
<path d="M0 0 C1.32 0 2.64 0 4 0 C4.33 1.98 4.66 3.96 5 6 C5.5775 5.01 6.155 4.02 6.75 3 C7.4925 2.01 8.235 1.02 9 0 C10.32 0 11.64 0 13 0 C12.690625 0.556875 12.38125 1.11375 12.0625 1.6875 C10.94238179 4.12540433 10.43962636 6.36224186 10 9 C9.01 9.33 8.02 9.66 7 10 C5.65909241 10.65129797 4.32407669 11.31513275 3 12 C3 13.65 3 15.3 3 17 C2.01 16.67 1.02 16.34 0 16 C0 10.72 0 5.44 0 0 Z " fill="#C60A00" transform="translate(108,106)"/>
<path d="M0 0 C3.2341589 1.53197001 4.7750876 2.60415417 6.5625 5.75 C7.07722718 9.5736876 6.11533938 11.15668275 4.02734375 14.3203125 C2.71204311 16.47080405 2.30119703 18.5151245 2 21 C1.67 20.34 1.34 19.68 1 19 C0.34 19 -0.32 19 -1 19 C-1.96229636 14.09228857 -1.86627726 11.54905082 0 7 C-0.27050453 4.99053778 -0.59367909 2.98645776 -1 1 C-0.67 0.67 -0.34 0.34 0 0 Z " fill="#231811" transform="translate(72,45)"/>
<path d="M0 0 C2 2 2 2 2.25 4.875 C2.01152253 7.85596832 1.54507335 9.4892558 0 12 C1.98 11.34 3.96 10.68 6 10 C6.33 10.66 6.66 11.32 7 12 C6.43410156 12.26554687 5.86820313 12.53109375 5.28515625 12.8046875 C4.55167969 13.15789062 3.81820313 13.51109375 3.0625 13.875 C2.33160156 14.22304687 1.60070312 14.57109375 0.84765625 14.9296875 C-1.16332459 15.8684977 -1.16332459 15.8684977 -2 18 C6.58 18 15.16 18 24 18 C24 18.33 24 18.66 24 19 C10.8 19 -2.4 19 -16 19 C-16 18.67 -16 18.34 -16 18 C-12.04 18 -8.08 18 -4 18 C-3.87625 17.071875 -3.7525 16.14375 -3.625 15.1875 C-3 12 -3 12 -1 9 C-0.79628846 6.97540797 -0.79628846 6.97540797 -0.9375 4.875 C-0.958125 3.59625 -0.97875 2.3175 -1 1 C-0.67 0.67 -0.34 0.34 0 0 Z " fill="#4B3708" transform="translate(25,84)"/>
<path d="M0 0 C2.97 0 5.94 0 9 0 C9 0.33 9 0.66 9 1 C7.02 1 5.04 1 3 1 C3 2.98 3 4.96 3 7 C4.98 7 6.96 7 9 7 C9 7.66 9 8.32 9 9 C9.99 9 10.98 9 12 9 C11.67 10.65 11.34 12.3 11 14 C11.66 14.33 12.32 14.66 13 15 C11.68 15 10.36 15 9 15 C9 14.01 9 13.02 9 12 C8.34 12 7.68 12 7 12 C7 11.01 7 10.02 7 9 C5.68 9 4.36 9 3 9 C3 11.31 3 13.62 3 16 C2.01 16 1.02 16 0 16 C0 10.72 0 5.44 0 0 Z " fill="#EA6900" transform="translate(39,107)"/>
<path d="M0 0 C3.63 0 7.26 0 11 0 C11 0.66 11 1.32 11 2 C8.36 2 5.72 2 3 2 C3 3.65 3 5.3 3 7 C4.98 7 6.96 7 9 7 C9 7.66 9 8.32 9 9 C7.02 9.33 5.04 9.66 3 10 C3 11.98 3 13.96 3 16 C2.01 16 1.02 16 0 16 C0 10.72 0 5.44 0 0 Z " fill="#EA8E00" transform="translate(10,106)"/>
<path d="M0 0 C10.26718009 6.26362559 10.26718009 6.26362559 12 11 C12.3804212 15.41288598 12.48386059 17.27420911 10 21 C9 18 9 18 9.25 14.0625 C9.35755762 11.96369598 9.35755762 11.96369598 9 10 C6.66169042 7.4595774 6.66169042 7.4595774 4 6 C4 7.65 4 9.3 4 11 C2.34385343 11.38218767 0.67542976 11.71395102 -1 12 C-2.87643761 10.12356239 -2.17984987 7.50194299 -2.23046875 5.0078125 C-2 3 -2 3 0 0 Z M0 4 C-0.33 5.98 -0.66 7.96 -1 10 C0.32 10 1.64 10 3 10 C2.42655063 7.13275314 2.1385485 6.1385485 0 4 Z " fill="#2E1D13" transform="translate(71,66)"/>
<path d="M0 0 C1.60379341 -0.05416188 3.20811406 -0.09286638 4.8125 -0.125 C5.70582031 -0.14820312 6.59914063 -0.17140625 7.51953125 -0.1953125 C10 0 10 0 13 2 C12.67 4.31 12.34 6.62 12 9 C11.01 9.33 10.02 9.66 9 10 C9 9.34 9 8.68 9 8 C7.02 8 5.04 8 3 8 C3.0928125 6.576875 3.0928125 6.576875 3.1875 5.125 C3.125625 4.09375 3.06375 3.0625 3 2 C2.01 1.34 1.02 0.68 0 0 Z " fill="#BB5000" transform="translate(39,106)"/>
<path d="M0 0 C1.32 0 2.64 0 4 0 C4 5.61 4 11.22 4 17 C3.01 17 2.02 17 1 17 C1 14.36 1 11.72 1 9 C-0.32 9 -1.64 9 -3 9 C-2.5020163 5.26512223 -2.12508244 3.18762365 0 0 Z " fill="#DE4500" transform="translate(69,106)"/>
<path d="M0 0 C1.65 0 3.3 0 5 0 C5.99 2.97 6.98 5.94 8 9 C6.35 9 4.7 9 3 9 C3 10.98 3 12.96 3 15 C2.01 15.495 2.01 15.495 1 16 C-0.14077657 12.57767028 -0.09815117 9.91326783 -0.0625 6.3125 C-0.05347656 5.13300781 -0.04445312 3.95351562 -0.03515625 2.73828125 C-0.02355469 1.83464844 -0.01195312 0.93101563 0 0 Z " fill="#DC5400" transform="translate(54,106)"/>
<path d="M0 0 C0.66 0 1.32 0 2 0 C1.9175 0.845625 1.835 1.69125 1.75 2.5625 C1.99583818 5.94277497 2.33396421 6.85386659 4.0625 9.5625 C6 13 6 13 5.75 15.9375 C5.5025 16.618125 5.255 17.29875 5 18 C3.31066078 16.3563186 1.64740076 14.6857124 0 13 C-0.928125 12.071875 -0.928125 12.071875 -1.875 11.125 C-3.59546196 7.87523853 -2.83783859 5.48025262 -2 2 C-1.34 1.34 -0.68 0.68 0 0 Z " fill="#EB5C00" transform="translate(73,6)"/>
<path d="M0 0 C2.0625 0.4375 2.0625 0.4375 4 1 C4.33 2.32 4.66 3.64 5 5 C4.06414062 5.12181641 4.06414062 5.12181641 3.109375 5.24609375 C0.8507553 5.79429444 0.8507553 5.79429444 -0.046875 7.84765625 C-0.39492187 8.94400391 -0.39492187 8.94400391 -0.75 10.0625 C-0.99234375 10.79597656 -1.2346875 11.52945313 -1.484375 12.28515625 C-1.65453125 12.85105469 -1.8246875 13.41695312 -2 14 C-2.66 14 -3.32 14 -4 14 C-4 14.99 -4 15.98 -4 17 C-4.99 17 -5.98 17 -7 17 C-6.67 14.69 -6.34 12.38 -6 10 C-5.34 10 -4.68 10 -4 10 C-3.79503906 9.36191406 -3.59007813 8.72382812 -3.37890625 8.06640625 C-3.10949219 7.24011719 -2.84007813 6.41382812 -2.5625 5.5625 C-2.16224609 4.32693359 -2.16224609 4.32693359 -1.75390625 3.06640625 C-1 1 -1 1 0 0 Z " fill="#C82E00" transform="translate(84,106)"/>
<path d="M0 0 C6.15234375 -0.09765625 6.15234375 -0.09765625 8 0 C8.33 0.33 8.66 0.66 9 1 C8.63228438 6.79152098 8.63228438 6.79152098 8 9 C5 11 5 11 2 12 C1.67 12.99 1.34 13.98 1 15 C0.01 14.67 -0.98 14.34 -2 14 C-1.34 14 -0.68 14 0 14 C0 13.01 0 12.02 0 11 C-0.66 10.67 -1.32 10.34 -2 10 C-1.34 10 -0.68 10 0 10 C0 9.34 0 8.68 0 8 C1.98 7.67 3.96 7.34 6 7 C6 6.34 6 5.68 6 5 C4.02 5 2.04 5 0 5 C0 3.35 0 1.7 0 0 Z M2 2 C2 2.66 2 3.32 2 4 C3.98 4 5.96 4 8 4 C8 3.34 8 2.68 8 2 C6.02 2 4.04 2 2 2 Z " fill="#372710" transform="translate(13,108)"/>
<path d="M0 0 C-0.66 0.66 -1.32 1.32 -2 2 C-1.77478905 5.90365639 -1.18507026 8.64409566 0.625 12.125 C2.17438984 15.36463331 2.08407539 16.64922152 1 20 C0.67 20 0.34 20 0 20 C-0.4021875 18.1746875 -0.4021875 18.1746875 -0.8125 16.3125 C-1.68494361 12.77878956 -2.92156939 10.0231718 -5 7 C-5.66 7.66 -6.32 8.32 -7 9 C-9 7 -9 7 -9.4375 4.5625 C-9 2 -9 2 -6.75 0.125 C-3.83945073 -1.06567925 -2.84961767 -1.16095535 0 0 Z " fill="#342C1E" transform="translate(38,59)"/>
<path d="M0 0 C0.33 0 0.66 0 1 0 C1 1.65 1 3.3 1 5 C1.66 5 2.32 5 3 5 C3.28875 5.639375 3.5775 6.27875 3.875 6.9375 C4.82823451 9.15206079 4.82823451 9.15206079 7 10 C2.71 10 -1.58 10 -6 10 C-6 8.68 -6 7.36 -6 6 C-6.66 6 -7.32 6 -8 6 C-8.66 4.68 -9.32 3.36 -10 2 C-8.68 2 -7.36 2 -6 2 C-6 2.99 -6 3.98 -6 5 C-5.34 5 -4.68 5 -4 5 C-4 5.99 -4 6.98 -4 8 C-3.34 7.67 -2.68 7.34 -2 7 C-1.26924352 4.6859378 -0.59861742 2.35171131 0 0 Z " fill="#2A1A0F" transform="translate(52,114)"/>
<path d="M0 0 C0.66 0.33 1.32 0.66 2 1 C1.44271087 4.34373475 0.64826111 7.03312999 -1 10 C-3 10 -3 10 -5.125 8 C-5.74375 7.34 -6.3625 6.68 -7 6 C-6.67 8.97 -6.34 11.94 -6 15 C-7.32 14.67 -8.64 14.34 -10 14 C-9.34 13.34 -8.68 12.68 -8 12 C-8.33 11.2575 -8.66 10.515 -9 9.75 C-10 7 -10 7 -10 3 C-8.906875 3.185625 -7.81375 3.37125 -6.6875 3.5625 C-3.06375867 4.2578068 -3.06375867 4.2578068 0 3 C0 2.01 0 1.02 0 0 Z " fill="#503E09" transform="translate(21,69)"/>
<path d="M0 0 C2.97 0 5.94 0 9 0 C9 0.33 9 0.66 9 1 C7.35 1 5.7 1 4 1 C4 5.95 4 10.9 4 16 C2.68 16 1.36 16 0 16 C0 14.02 0 12.04 0 10 C0.66 10 1.32 10 2 10 C2 9.34 2 8.68 2 8 C1.34 8 0.68 8 0 8 C0 5.36 0 2.72 0 0 Z " fill="#D22100" transform="translate(93,107)"/>
<path d="M0 0 C1.98 0 3.96 0 6 0 C5.07960938 0.35191406 5.07960938 0.35191406 4.140625 0.7109375 C1.4369579 2.3390582 0.90946466 3.72633836 -0.25 6.625 C-0.58515625 7.44226563 -0.9203125 8.25953125 -1.265625 9.1015625 C-1.50796875 9.72804688 -1.7503125 10.35453125 -2 11 C-2.66 11 -3.32 11 -4 11 C-4.33 13.31 -4.66 15.62 -5 18 C-4.01 18 -3.02 18 -2 18 C-1.67 17.34 -1.34 16.68 -1 16 C-1 16.99 -1 17.98 -1 19 C-5.75 19.125 -5.75 19.125 -8 18 C-7.67 16.35 -7.34 14.7 -7 13 C-6.34 13 -5.68 13 -5 13 C-5 12.34 -5 11.68 -5 11 C-5.99 10.67 -6.98 10.34 -8 10 C-6.35 9.67 -4.7 9.34 -3 9 C-2.01 6.03 -1.02 3.06 0 0 Z " fill="#0B0503" transform="translate(82,105)"/>
<path d="M0 0 C0.66 0.33 1.32 0.66 2 1 C3.18205463 6.19657978 3.11286 11.69558018 3 17 C3.99 17.33 4.98 17.66 6 18 C6 16.02 6 14.04 6 12 C6.33 12 6.66 12 7 12 C7 14.31 7 16.62 7 19 C4.69 19 2.38 19 0 19 C-0.76136084 16.71591749 -1.05265767 15.25576584 -0.5625 12.875 C0.27458024 8.59658986 0.07595065 4.34606469 0 0 Z " fill="#1F190D" transform="translate(8,105)"/>
<path d="M0 0 C-0.33 0.66 -0.66 1.32 -1 2 C-1.33 2 -1.66 2 -2 2 C-2.27429625 7.39449293 -2.36055646 10.51925805 1 15 C-1.62187494 13.95125002 -2.79371361 13.35068687 -4.25 10.875 C-4.4975 10.25625 -4.745 9.6375 -5 9 C-5.33 10.32 -5.66 11.64 -6 13 C-8 10 -8 10 -7.8125 7.0625 C-6.43049387 1.85339998 -5.59341767 0 0 0 Z " fill="#1E1204" transform="translate(54,88)"/>
<path d="M0 0 C1.9375 0.3125 1.9375 0.3125 4 1 C5 4 5 4 3.9375 6.3125 C1.95623178 9.06071076 -0.20322234 11.23733758 -2.63671875 13.57421875 C-4.21525002 15.22511822 -5.18078483 16.87004055 -6 19 C-6 18.34 -6 17.68 -6 17 C-6.66 16.67 -7.32 16.34 -8 16 C-6.41662672 12.91658887 -5.39329043 11.23410145 -2.375 9.4375 C0.11268261 8.23821644 0.11268261 8.23821644 0.875 6.0625 C1.01085592 3.82087733 0.68466176 2.13005882 0 0 Z " fill="#2D1F0A" transform="translate(42,68)"/>
<path d="M0 0 C0.99 0.66 1.98 1.32 3 2 C3.69708011 5.58498345 3.02091731 6.96513781 1.125 10.125 C0.42375 11.07375 -0.2775 12.0225 -1 13 C-1.66 13.99 -2.32 14.98 -3 16 C-4.36231884 9.5599473 -4.36231884 9.5599473 -2.625 6.875 C-2.08875 6.25625 -1.5525 5.6375 -1 5 C-0.28566879 2.35065178 -0.28566879 2.35065178 0 0 Z " fill="#E45A00" transform="translate(74,48)"/>
<path d="M0 0 C0.66 0 1.32 0 2 0 C2.73030908 6.21324498 3.23180249 11.84098757 2 18 C-1 16 -1 16 -1.6875 13.375 C-1.790625 12.59125 -1.89375 11.8075 -2 11 C-1.34 11 -0.68 11 0 11 C0 7.37 0 3.74 0 0 Z " fill="#3D1D00" transform="translate(37,105)"/>
<path d="M0 0 C2 2 2 2 2.25 5.1875 C3.12953831 9.6584864 4.66097758 11.30621753 7.8203125 14.421875 C8.20960937 14.94265625 8.59890625 15.4634375 9 16 C8.67 16.99 8.34 17.98 8 19 C7.01 19 6.02 19 5 19 C5.1546875 17.9171875 5.1546875 17.9171875 5.3125 16.8125 C5.27005046 13.76248574 5.27005046 13.76248574 2.5625 11.5625 C-0.39859167 8.60140833 -0.82098935 7.11724499 -1 3 C-0.67 2.01 -0.34 1.02 0 0 Z " fill="#301E13" transform="translate(69,8)"/>
<path d="M0 0 C1.32 0 2.64 0 4 0 C4 5.61 4 11.22 4 17 C3.01 17 2.02 17 1 17 C1 14.03 1 11.06 1 8 C1.66 8 2.32 8 3 8 C3 5.69 3 3.38 3 1 C2.01 0.67 1.02 0.34 0 0 Z " fill="#C13900" transform="translate(69,106)"/>
<path d="M0 0 C4.27761063 0.47529007 6.34161627 2.7668306 9 6 C9.9375 9.1875 9.9375 9.1875 10 12 C9.34 12.66 8.68 13.32 8 14 C7.87625 12.329375 7.87625 12.329375 7.75 10.625 C7.43724932 6.97444013 7.43724932 6.97444013 5.125 5.75 C4.42375 5.5025 3.7225 5.255 3 5 C1.25 3.5 1.25 3.5 0 2 C0 1.34 0 0.68 0 0 Z " fill="#2C1917" transform="translate(109,47)"/>
<path d="M0 0 C1.65 0 3.3 0 5 0 C5.66 1.65 6.32 3.3 7 5 C4.69 5.33 2.38 5.66 0 6 C0 4.02 0 2.04 0 0 Z " fill="#2F110D" transform="translate(97,108)"/>
<path d="M0 0 C1.41077471 3.8346561 0.60999698 6.78328293 -0.3125 10.6875 C-0.57675781 11.84636719 -0.84101562 13.00523438 -1.11328125 14.19921875 C-1.40589844 15.12347656 -1.69851562 16.04773438 -2 17 C-2.66 17.33 -3.32 17.66 -4 18 C-4.59244521 11.33499135 -2.48322845 6.13047025 0 0 Z " fill="#42281D" transform="translate(91,25)"/>
<path d="M0 0 C1.65 0 3.3 0 5 0 C5.38218767 1.65614657 5.71395102 3.32457024 6 5 C5 6 5 6 2.4375 6.0625 C1.2309375 6.0315625 1.2309375 6.0315625 0 6 C0 4.02 0 2.04 0 0 Z " fill="#2D1808" transform="translate(42,108)"/>
<path d="M0 0 C1 3 1 3 0.22265625 4.90234375 C-0.16019531 5.57394531 -0.54304688 6.24554688 -0.9375 6.9375 C-2.75807592 10.14047933 -3 11.07836033 -3 15 C-3.99 14.67 -4.98 14.34 -6 14 C-5.57202798 8.29370646 -3.15654048 4.58921384 0 0 Z " fill="#1F1109" transform="translate(80,86)"/>
<path d="M0 0 C0.66 0 1.32 0 2 0 C2.33 2.64 2.66 5.28 3 8 C2.34 8 1.68 8 1 8 C0.67 7.01 0.34 6.02 0 5 C-2.12046792 8.53411321 -2.53199289 11.94393835 -3 16 C-3.33 16 -3.66 16 -4 16 C-4.46450943 9.49686791 -3.32575612 5.5825192 0 0 Z " fill="#14100C" transform="translate(54,62)"/>
<path d="M0 0 C0.66 0.33 1.32 0.66 2 1 C2.44587643 4.0468223 2.50604741 6.19236877 0.83984375 8.8515625 C-2.05977514 12.33703789 -4.89828339 14.9491417 -9 17 C-7.82080965 13.81618605 -6.70299694 12.7696711 -3.9375 10.625 C-0.76302398 8.26607422 -0.76302398 8.26607422 -0.125 4.8125 C-0.05374999 3.20937485 0 1.6047077 0 0 Z " fill="#180604" transform="translate(111,51)"/>
<path d="M0 0 C-1.28965176 1.37562854 -2.62689293 2.70766393 -4 4 C-4.66 4 -5.32 4 -6 4 C-6.33 4.99 -6.66 5.98 -7 7 C-7.99 6.67 -8.98 6.34 -10 6 C-9.34 6 -8.68 6 -8 6 C-8 5.01 -8 4.02 -8 3 C-8.66 2.67 -9.32 2.34 -10 2 C-9.34 2 -8.68 2 -8 2 C-8 1.34 -8 0.68 -8 0 C-5.13822943 -1.43088528 -3.06624227 -0.59991697 0 0 Z " fill="#543F1D" transform="translate(21,116)"/>
<path d="M0 0 C0.99 0 1.98 0 3 0 C3 0.99 3 1.98 3 3 C4.32 3.33 5.64 3.66 7 4 C7.33 3.01 7.66 2.02 8 1 C8.33 1.66 8.66 2.32 9 3 C8.67 3.66 8.34 4.32 8 5 C5.03 5 2.06 5 -1 5 C-0.67 3.35 -0.34 1.7 0 0 Z " fill="#110802" transform="translate(58,118)"/>
<path d="M0 0 C0.99 0 1.98 0 3 0 C3 0.66 3 1.32 3 2 C3.66 2 4.32 2 5 2 C5 1.34 5 0.68 5 0 C5.66 0 6.32 0 7 0 C6.34 1.98 5.68 3.96 5 6 C3.68 5.67 2.36 5.34 1 5 C0.67 3.35 0.34 1.7 0 0 Z " fill="#D04800" transform="translate(60,116)"/>
<path d="M0 0 C1.98 0.66 3.96 1.32 6 2 C6 2.99 6 3.98 6 5 C5.01 5 4.02 5 3 5 C2.67 6.32 2.34 7.64 2 9 C0 7 0 7 -0.125 3.375 C-0.08375 2.26125 -0.0425 1.1475 0 0 Z " fill="#312813" transform="translate(24,73)"/>
<path d="M0 0 C2.5654594 2.5654594 2.54046087 4.47686668 3 8 C1.35 8 -0.3 8 -2 8 C-1.125 2.25 -1.125 2.25 0 0 Z " fill="#3E160B" transform="translate(85,110)"/>
<path d="M0 0 C1.32 0.33 2.64 0.66 4 1 C4 3.64 4 6.28 4 9 C3.34 9 2.68 9 2 9 C0.50178941 5.62902617 0 3.79557881 0 0 Z " fill="#281C1C" transform="translate(119,115)"/>
<path d="M0 0 C0.33 2.64 0.66 5.28 1 8 C0.34 7.01 -0.32 6.02 -1 5 C-1.33 4.67 -1.66 4.34 -2 4 C-2.33 4.99 -2.66 5.98 -3 7 C-3.99 5.02 -4.98 3.04 -6 1 C-3.92446352 0.4465236 -2.15634036 0 0 0 Z " fill="#171107" transform="translate(34,88)"/>
<path d="M0 0 C0.99 0 1.98 0 3 0 C3 2.64 3 5.28 3 8 C2.01 7.67 1.02 7.34 0 7 C0 4.69 0 2.38 0 0 Z " fill="#F08400" transform="translate(23,106)"/>
<path d="M0 0 C1.4783226 2.95664519 1.06032783 5.74229737 1 9 C1.66 9 2.32 9 3 9 C3 9.66 3 10.32 3 11 C2.34 11 1.68 11 1 11 C0.67 11.66 0.34 12.32 0 13 C-2 6.375 -2 6.375 -2 3 C-1.34 2.01 -0.68 1.02 0 0 Z " fill="#1B0F06" transform="translate(70,55)"/>
<path d="M0 0 C1.32 0.66 2.64 1.32 4 2 C3.34 2 2.68 2 2 2 C2 3.98 2 5.96 2 8 C1.01 7.67 0.02 7.34 -1 7 C-2 4 -2 4 -1.0625 1.8125 C-0.5365625 0.9153125 -0.5365625 0.9153125 0 0 Z " fill="#331B10" transform="translate(68,114)"/>
<path d="M0 0 C0.66 0.33 1.32 0.66 2 1 C2 3.31 2 5.62 2 8 C1.01 8 0.02 8 -1 8 C-1.04241723 5.66705225 -1.04092937 3.33297433 -1 1 C-0.67 0.67 -0.34 0.34 0 0 Z " fill="#CA5F00" transform="translate(40,115)"/>
<path d="M0 0 C4 6 4 6 4 10 C3.34 10 2.68 10 2 10 C-0.17364926 7.18230651 -1.08677021 5.7809319 -0.6875 2.1875 C-0.460625 1.465625 -0.23375 0.74375 0 0 Z " fill="#DEA400" transform="translate(20,44)"/>
<path d="M0 0 C1.32 0 2.64 0 4 0 C4 0.99 4 1.98 4 3 C4.66 3 5.32 3 6 3 C6 4.65 6 6.3 6 8 C5.67 6.68 5.34 5.36 5 4 C3.35 4.33 1.7 4.66 0 5 C0 3.35 0 1.7 0 0 Z " fill="#201614" transform="translate(96,116)"/>
<path d="M0 0 C1.32 0 2.64 0 4 0 C2.9024777 2.99324263 2.32317108 3.84610901 -0.625 5.25 C-1.40875 5.4975 -2.1925 5.745 -3 6 C-2 4 -1 2 0 0 Z " fill="#BD0200" transform="translate(117,106)"/>
<path d="M0 0 C1.32 0 2.64 0 4 0 C4.33 2.97 4.66 5.94 5 9 C1.58712264 7.29356132 1.15558675 3.46676025 0 0 Z " fill="#2A1C18" transform="translate(87,81)"/>
<path d="M0 0 C1.32 0.33 2.64 0.66 4 1 C4.33 2.32 4.66 3.64 5 5 C3.68 5 2.36 5 1 5 C0.67 3.35 0.34 1.7 0 0 Z " fill="#C20100" transform="translate(116,118)"/>
<path d="M0 0 C2.97 0.495 2.97 0.495 6 1 C5.67 1.66 5.34 2.32 5 3 C4.34 2.67 3.68 2.34 3 2 C3 2.99 3 3.98 3 5 C2.01 5 1.02 5 0 5 C0 3.35 0 1.7 0 0 Z " fill="#141108" transform="translate(19,82)"/>
<path d="M0 0 C0.66 0.33 1.32 0.66 2 1 C2 3.31 2 5.62 2 8 C1.01 7.34 0.02 6.68 -1 6 C-1.25 3.4375 -1.25 3.4375 -1 1 C-0.67 0.67 -0.34 0.34 0 0 Z " fill="#3A2802" transform="translate(30,60)"/>
<path d="M0 0 C0.66 0 1.32 0 2 0 C3.2890625 1.53125 3.2890625 1.53125 4.625 3.5 C5.07101563 4.1496875 5.51703125 4.799375 5.9765625 5.46875 C6.31429687 5.9740625 6.65203125 6.479375 7 7 C4.03824877 6.38722388 2.61941217 5.74627478 0 4 C0 2.68 0 1.36 0 0 Z " fill="#251809" transform="translate(50,78)"/>
<path d="M0 0 C1.32 0 2.64 0 4 0 C3.67 0.66 3.34 1.32 3 2 C2.67 2 2.34 2 2 2 C1.67 3.98 1.34 5.96 1 8 C0.87625 7.360625 0.7525 6.72125 0.625 6.0625 C0.315625 5.0415625 0.315625 5.0415625 0 4 C-0.66 3.67 -1.32 3.34 -2 3 C-1.34 2.01 -0.68 1.02 0 0 Z " fill="#3A2002" transform="translate(50,88)"/>
<path d="M0 0 C1.43088528 2.86177057 0.59991697 4.93375773 0 8 C-0.99 8 -1.98 8 -3 8 C-2.25 2.25 -2.25 2.25 0 0 Z " fill="#25231F" transform="translate(22,74)"/>
<path d="M0 0 C3.65316671 1.24976756 4.78065836 1.67098753 7 5 C6.67 5.99 6.34 6.98 6 8 C4.02 5.36 2.04 2.72 0 0 Z " fill="#1E0F07" transform="translate(75,70)"/>
</svg>
