<?xml version="1.0" encoding="UTF-8"?>
<svg version="1.1" xmlns="http://www.w3.org/2000/svg" width="1200" height="1200">
<path d="M0 0 C396 0 792 0 1200 0 C1200 396 1200 792 1200 1200 C804 1200 408 1200 0 1200 C0 804 0 408 0 0 Z " fill="#00FE00" transform="translate(0,0)"/>
<path d="M0 0 C49.5 0 99 0 150 0 C150 12.21 150 24.42 150 37 C162.13173597 36.96039717 162.13173597 36.96039717 174.26342773 36.90991211 C175.77848236 36.90699293 177.29353777 36.90444438 178.80859375 36.90234375 C179.60237427 36.89722778 180.39615479 36.89211182 181.21398926 36.88684082 C183.14302829 36.88653044 185.07196912 36.93764107 187 37 C188 38 188 38 188.11352539 41.51000977 C188.11327431 43.07048421 188.1077134 44.6309642 188.09765625 46.19140625 C188.09664917 46.91775269 188.09564209 47.64409912 188.09460449 48.39245605 C188.08935716 51.11582001 188.075396 53.83916153 188.0625 56.5625 C188.041875 62.646875 188.02125 68.73125 188 75 C200.21 75 212.42 75 225 75 C225 112.29 225 149.58 225 188 C212.79 188 200.58 188 188 188 C188 200.21 188 212.42 188 225 C175.46 225 162.92 225 150 225 C150 237.54 150 250.08 150 263 C137.79 263 125.58 263 113 263 C113 275.21 113 287.42 113 300 C100.46 300 87.92 300 75 300 C75 312.54 75 325.08 75 338 C62.79 338 50.58 338 38 338 C38 350.21 38 362.42 38 375 C99.71 375 161.42 375 225 375 C225 399.75 225 424.5 225 450 C126 450 27 450 -75 450 C-75 425.25 -75 400.5 -75 375 C-62.79 375 -50.58 375 -38 375 C-38.03960283 362.86826403 -38.03960283 362.86826403 -38.09008789 350.73657227 C-38.09300707 349.22151764 -38.09555562 347.70646223 -38.09765625 346.19140625 C-38.10277222 345.39762573 -38.10788818 344.60384521 -38.11315918 343.78601074 C-38.11346956 341.85697171 -38.06235893 339.92803088 -38 338 C-37 337 -37 337 -33.48999023 336.88647461 C-31.92951579 336.88672569 -30.3690358 336.8922866 -28.80859375 336.90234375 C-28.08224731 336.90335083 -27.35590088 336.90435791 -26.60754395 336.90539551 C-23.88417999 336.91064284 -21.16083847 336.924604 -18.4375 336.9375 C-12.353125 336.958125 -6.26875 336.97875 0 337 C0 324.79 0 312.58 0 300 C12.21 300 24.42 300 37 300 C36.96039717 287.86826403 36.96039717 287.86826403 36.90991211 275.73657227 C36.90699293 274.22151764 36.90444438 272.70646223 36.90234375 271.19140625 C36.89722778 270.39762573 36.89211182 269.60384521 36.88684082 268.78601074 C36.88653044 266.85697171 36.93764107 264.92803088 37 263 C38 262 38 262 41.51000977 261.88647461 C43.07048421 261.88672569 44.6309642 261.8922866 46.19140625 261.90234375 C46.91775269 261.90335083 47.64409912 261.90435791 48.39245605 261.90539551 C51.11582001 261.91064284 53.83916153 261.924604 56.5625 261.9375 C62.646875 261.958125 68.73125 261.97875 75 262 C75 249.79 75 237.58 75 225 C87.21 225 99.42 225 112 225 C111.96039717 212.86826403 111.96039717 212.86826403 111.90991211 200.73657227 C111.90699293 199.22151764 111.90444438 197.70646223 111.90234375 196.19140625 C111.89722778 195.39762573 111.89211182 194.60384521 111.88684082 193.78601074 C111.88653044 191.85697171 111.93764107 189.92803088 112 188 C112.33 187.67 112.66 187.34 113 187 C125.21 187 137.42 187 150 187 C150 162.58 150 138.16 150 113 C137.79 113 125.58 113 113 113 C112.67 112.67 112.34 112.34 112 112 C112 99.79 112 87.58 112 75 C87.58 75 63.16 75 38 75 C38 87.21 38 99.42 38 112 C37 113 37 113 33.48999023 113.11352539 C31.92951579 113.11327431 30.3690358 113.1077134 28.80859375 113.09765625 C28.08224731 113.09664917 27.35590088 113.09564209 26.60754395 113.09460449 C23.88417999 113.08935716 21.16083847 113.075396 18.4375 113.0625 C12.353125 113.041875 6.26875 113.02125 0 113 C0 125.21 0 137.42 0 150 C-24.75 150 -49.5 150 -75 150 C-75 125.25 -75 100.5 -75 75 C-62.79 75 -50.58 75 -38 75 C-38.03960283 62.86826403 -38.03960283 62.86826403 -38.09008789 50.73657227 C-38.09300707 49.22151764 -38.09555562 47.70646223 -38.09765625 46.19140625 C-38.10277222 45.39762573 -38.10788818 44.60384521 -38.11315918 43.78601074 C-38.11346956 41.85697171 -38.06235893 39.92803088 -38 38 C-37 37 -37 37 -33.48999023 36.88647461 C-31.92951579 36.88672569 -30.3690358 36.8922866 -28.80859375 36.90234375 C-28.08224731 36.90335083 -27.35590088 36.90435791 -26.60754395 36.90539551 C-23.88417999 36.91064284 -21.16083847 36.924604 -18.4375 36.9375 C-12.353125 36.958125 -6.26875 36.97875 0 37 C0 24.79 0 12.58 0 0 Z " fill="#0001FD" transform="translate(150,525)"/>
<path d="M0 0 C24.75 0 49.5 0 75 0 C75 123.75 75 247.5 75 375 C99.75 375 124.5 375 150 375 C150 399.75 150 424.5 150 450 C63.21 450 -23.58 450 -113 450 C-113 425.25 -113 400.5 -113 375 C-75.71 375 -38.42 375 0 375 C0 288.54 0 202.08 0 113 C-36.96 113 -73.92 113 -112 113 C-113.91206302 111.08793698 -113.12785765 107.63873616 -113.12939453 105.109375 C-113.13114685 104.38907104 -113.13289917 103.66876709 -113.13470459 102.92663574 C-113.13912288 100.53439966 -113.13618521 98.1422369 -113.1328125 95.75 C-113.13348555 94.09472642 -113.13445558 92.43945293 -113.13571167 90.78417969 C-113.13718861 87.31053733 -113.13503421 83.83692063 -113.13037109 80.36328125 C-113.1246738 75.90067502 -113.12795283 71.43812892 -113.13394356 66.9755249 C-113.13754927 63.5561477 -113.13641054 60.13678485 -113.13381577 56.71740723 C-113.13314652 55.07149244 -113.13397482 53.42557637 -113.13629532 51.77966309 C-113.13882202 49.48328169 -113.13498103 47.18699901 -113.12939453 44.890625 C-113.12859894 43.58125977 -113.12780334 42.27189453 -113.12698364 40.92285156 C-113 38 -113 38 -112 37 C-110.54518505 36.9043839 -109.08574514 36.87811649 -107.62779236 36.87974548 C-106.68403244 36.87837082 -105.74027252 36.87699615 -104.76791382 36.87557983 C-103.72422638 36.87917511 -102.68053894 36.88277039 -101.60522461 36.88647461 C-100.51267868 36.88632858 -99.42013275 36.88618256 -98.29447937 36.8860321 C-94.66374767 36.88673178 -91.03306654 36.89452671 -87.40234375 36.90234375 C-84.89270557 36.90420774 -82.38306702 36.90563173 -79.87342834 36.90663147 C-73.93065407 36.91006652 -67.98789616 36.91795727 -62.04513031 36.92798096 C-54.61798075 36.94023747 -47.19082895 36.94562208 -39.76367188 36.95117188 C-26.50910345 36.96191189 -13.25455694 36.97950992 0 37 C0 24.79 0 12.58 0 0 Z " fill="#0000FE" transform="translate(975,525)"/>
<path d="M0 0 C37.29 0 74.58 0 113 0 C113 12.54 113 25.08 113 38 C125.21 38 137.42 38 150 38 C150 50.21 150 62.42 150 75 C137.79 75 125.58 75 113 75 C113 112.29 113 149.58 113 188 C125.21 188 137.42 188 150 188 C150 200.21 150 212.42 150 225 C137.79 225 125.58 225 113 225 C113 261.96 113 298.92 113 337 C137.75 337 162.5 337 188 337 C188 349.54 188 362.08 188 375 C125.96 375 63.92 375 0 375 C0 338 0 338 1 337 C13.21 337 25.42 337 38 337 C38 238.33 38 139.66 38 38 C25.79 38 13.58 38 1 38 C0.67 37.67 0.34 37.34 0 37 C0 24.79 0 12.58 0 0 Z " fill="#0000FE" transform="translate(412,225)"/>
<path d="M0 0 C99 0 198 0 300 0 C300 25.08 300 50.16 300 76 C201 76 102 76 0 76 C0 50.92 0 25.84 0 0 Z " fill="#0003FB" transform="translate(525,712)"/>
<path d="M0 0 C36.96 0 73.92 0 112 0 C112 12.21 112 24.42 112 37 C124.13173597 36.96039717 124.13173597 36.96039717 136.26342773 36.90991211 C137.77848236 36.90699293 139.29353777 36.90444438 140.80859375 36.90234375 C141.60237427 36.89722778 142.39615479 36.89211182 143.21398926 36.88684082 C145.14302829 36.88653044 147.07196912 36.93764107 149 37 C150 38 150 38 150.11352539 41.51000977 C150.11327431 43.07048421 150.1077134 44.6309642 150.09765625 46.19140625 C150.09664917 46.91775269 150.09564209 47.64409912 150.09460449 48.39245605 C150.08935716 51.11582001 150.075396 53.83916153 150.0625 56.5625 C150.041875 62.646875 150.02125 68.73125 150 75 C162.21 75 174.42 75 187 75 C187 112.29 187 149.58 187 188 C174.79 188 162.58 188 150 188 C150 200.21 150 212.42 150 225 C137.46 225 124.92 225 112 225 C112 237.54 112 250.08 112 263 C97.41428473 263.0225479 82.82858093 263.04091327 68.24285221 263.05181217 C61.47089579 263.05697491 54.69895095 263.06401718 47.92700195 263.07543945 C41.39775574 263.08644714 34.86851706 263.09227625 28.33926201 263.09487724 C25.84206388 263.09673199 23.34486645 263.10035354 20.84767342 263.10573006 C17.36335931 263.11293684 13.87909569 263.1139911 10.39477539 263.11352539 C9.35108795 263.11712067 8.30740051 263.12071594 7.23208618 263.12442017 C6.28832626 263.1230455 5.34456635 263.12167084 4.37220764 263.12025452 C3.13470056 263.12163721 3.13470056 263.12163721 1.87219334 263.12304783 C0 263 0 263 -1 262 C-1 249.79 -1 237.58 -1 225 C24.08 225 49.16 225 75 225 C75 212.79 75 200.58 75 188 C87.21 188 99.42 188 112 188 C112 150.71 112 113.42 112 75 C99.79 75 87.58 75 75 75 C75 62.46 75 49.92 75 37 C50.25 37 25.5 37 0 37 C0 24.79 0 12.58 0 0 Z " fill="#0001FD" transform="translate(563,225)"/>
<path d="M0 0 C0.33 0 0.66 0 1 0 C1 12.21 1 24.42 1 37 C25.75 37 50.5 37 76 37 C76 49.54 76 62.08 76 75 C75.67 75 75.34 75 75 75 C75 62.79 75 50.58 75 38 C50.58 38 26.16 38 1 38 C1 50.21 1 62.42 1 75 C0.67 75 0.34 75 0 75 C0 62.79 0 50.58 0 38 C-12.21 38 -24.42 38 -37 38 C-37 37.67 -37 37.34 -37 37 C-24.79 37 -12.58 37 0 37 C0 24.79 0 12.58 0 0 Z " fill="#00A955" transform="translate(562,225)"/>
</svg>
